<svg xmlns="http://www.w3.org/2000/svg" viewBox="0 0 24 24" id="cake"><path fill="none" stroke="#303c42" stroke-linecap="round" stroke-linejoin="round" d="M15.5 23.5h.5M19 22.5l.5-.5M23.5 23.5H23M.5 12a2.3 2.3 0 0 0 2 1.5c1.46 0 .79-1.5 3-1.5m10.99-4.7A1.82 1.82 0 0 1 18 5.5c.84 0 2 .72 3.17-.44M2.5 10.5 3 10M4.5 6.5V7M7.5 4l.5.5M11.5 2.5 11 3M14.5 3l.5.5"></path><path fill="none" stroke="#303c42" stroke-linecap="round" stroke-linejoin="round" d="M12 .5C5.649.5.5 5.649.5 12S5.649 23.5 12 23.5c0-1.29.36-2.58 1.5-3a4.77 4.77 0 0 1 .07-2.2 6.442 6.442 0 0 1-1.57.2 6.51 6.51 0 1 1 5.44-3c.73.09 1.54 0 2.06.46.54-.57 1.15-.5 2-.5.463.006.918.119 1.33.33 2.11-5.973-1.022-12.525-6.995-14.635A11.467 11.467 0 0 0 12 .5z"></path></svg>